<?xml version="1.0" encoding="UTF-8" standalone="no"?>
<svg
   width="147mm"
   height="147mm"
   viewBox="0 0 147 147"
   version="1.1"
   id="svg75"
   xmlns="http://www.w3.org/2000/svg"
   xmlns:svg="http://www.w3.org/2000/svg"
   xmlns:lc="https://librecad.org">
  <defs
     id="defs75" />
  <g
     lc:layername="0"
     lc:is_locked="false"
     lc:is_construction="false"
     fill="none"
     stroke="black"
     stroke-width="1"
     id="g75"
     style="fill:none;fill-opacity:1;stroke:#ffa100;stroke-width:0.8;stroke-dasharray:none;stroke-opacity:1"
     transform="translate(0.50000002,0.50000002)">
    <line
       x1="26.887148"
       y1="23.973347"
       x2="28.182148"
       y2="24.464342"
       id="line1"
       style="fill:none;fill-opacity:1;stroke:#ffa100;stroke-width:0.8;stroke-dasharray:none;stroke-opacity:1" />
    <path
       d="m 26.887147,23.973347 a 0.5,0.5 0 0 0 -0.530814,0.11397"
       id="path1"
       style="fill:none;fill-opacity:1;stroke:#ffa100;stroke-width:0.8;stroke-dasharray:none;stroke-opacity:1" />
    <line
       x1="26.141064"
       y1="24.302588"
       x2="26.356333"
       y2="24.087317"
       id="line2"
       style="fill:none;fill-opacity:1;stroke:#ffa100;stroke-width:0.8;stroke-dasharray:none;stroke-opacity:1" />
    <path
       d="m 26.141064,24.302587 a 0.5,0.5 0 0 0 0,0.707106"
       id="path2"
       style="fill:none;fill-opacity:1;stroke:#ffa100;stroke-width:0.8;stroke-dasharray:none;stroke-opacity:1" />
    <line
       x1="27.76741"
       y1="26.63604"
       x2="26.141064"
       y2="25.009693"
       id="line3"
       style="fill:none;fill-opacity:1;stroke:#ffa100;stroke-width:0.8;stroke-dasharray:none;stroke-opacity:1" />
    <path
       d="m 27.76741,26.918882 a 0.2,0.2 0 0 0 0,-0.282843"
       id="path3"
       style="fill:none;fill-opacity:1;stroke:#ffa100;stroke-width:0.8;stroke-dasharray:none;stroke-opacity:1" />
    <line
       x1="26.918882"
       y1="27.76741"
       x2="27.76741"
       y2="26.918882"
       id="line4"
       style="fill:none;fill-opacity:1;stroke:#ffa100;stroke-width:0.8;stroke-dasharray:none;stroke-opacity:1" />
    <path
       d="m 26.636039,27.76741 a 0.2,0.2 0 0 0 0.282843,0"
       id="path4"
       style="fill:none;fill-opacity:1;stroke:#ffa100;stroke-width:0.8;stroke-dasharray:none;stroke-opacity:1" />
    <line
       x1="25.009693"
       y1="26.141064"
       x2="26.63604"
       y2="27.76741"
       id="line5"
       style="fill:none;fill-opacity:1;stroke:#ffa100;stroke-width:0.8;stroke-dasharray:none;stroke-opacity:1" />
    <path
       d="m 25.009693,26.141064 a 0.5,0.5 0 0 0 -0.707106,0"
       id="path5"
       style="fill:none;fill-opacity:1;stroke:#ffa100;stroke-width:0.8;stroke-dasharray:none;stroke-opacity:1" />
    <line
       x1="23.976437"
       y1="26.467215"
       x2="24.302588"
       y2="26.141064"
       id="line6"
       style="fill:none;fill-opacity:1;stroke:#ffa100;stroke-width:0.8;stroke-dasharray:none;stroke-opacity:1" />
    <path
       d="m 23.976436,26.467215 a 0.5,0.5 0 0 0 -0.09165,0.581128"
       id="path6"
       style="fill:none;fill-opacity:1;stroke:#ffa100;stroke-width:0.8;stroke-dasharray:none;stroke-opacity:1" />
    <line
       x1="24.464342"
       y1="28.182148"
       x2="23.884781"
       y2="27.048344"
       id="line7"
       style="fill:none;fill-opacity:1;stroke:#ffa100;stroke-width:0.8;stroke-dasharray:none;stroke-opacity:1" />
    <path
       d="m 26.003272,33.21399 a 10,10 0 0 0 -1.53893,-5.031842"
       id="path7"
       style="fill:none;fill-opacity:1;stroke:#ffa100;stroke-width:0.8;stroke-dasharray:none;stroke-opacity:1" />
    <path
       d="m 26.003272,33.21399 a 7,7 0 0 0 6.185433,6.738837"
       id="path8"
       style="fill:none;fill-opacity:1;stroke:#ffa100;stroke-width:0.8;stroke-dasharray:none;stroke-opacity:1" />
    <path
       d="M 38.343249,43.065453 A 10,10 0 0 0 32.188705,39.952827"
       id="path9"
       style="fill:none;fill-opacity:1;stroke:#ffa100;stroke-width:0.8;stroke-dasharray:none;stroke-opacity:1" />
    <path
       d="M 56,65.939105 A 10,10 0 0 0 53.313537,59.119121"
       id="path10"
       style="fill:none;fill-opacity:1;stroke:#ffa100;stroke-width:0.8;stroke-dasharray:none;stroke-opacity:1" />
    <line
       x1="56"
       y1="65.939102"
       x2="56"
       y2="80.060898"
       id="line10"
       style="fill:none;fill-opacity:1;stroke:#ffa100;stroke-width:0.8;stroke-dasharray:none;stroke-opacity:1" />
    <path
       d="M 53.313537,86.880879 A 10,10 0 0 0 56,80.060895"
       id="path11"
       style="fill:none;fill-opacity:1;stroke:#ffa100;stroke-width:0.8;stroke-dasharray:none;stroke-opacity:1" />
    <line
       x1="38.34325"
       y1="102.93455"
       x2="53.313538"
       y2="86.880882"
       id="line11"
       style="fill:none;fill-opacity:1;stroke:#ffa100;stroke-width:0.8;stroke-dasharray:none;stroke-opacity:1" />
    <path
       d="m 32.188705,106.04717 a 10,10 0 0 0 6.154544,-3.11262"
       id="path12"
       style="fill:none;fill-opacity:1;stroke:#ffa100;stroke-width:0.8;stroke-dasharray:none;stroke-opacity:1" />
    <path
       d="m 32.188705,106.04717 a 7,7 0 0 0 -6.185433,6.73884"
       id="path13"
       style="fill:none;fill-opacity:1;stroke:#ffa100;stroke-width:0.8;stroke-dasharray:none;stroke-opacity:1" />
    <path
       d="m 24.464342,117.81785 a 10,10 0 0 0 1.53893,-5.03184"
       id="path14"
       style="fill:none;fill-opacity:1;stroke:#ffa100;stroke-width:0.8;stroke-dasharray:none;stroke-opacity:1" />
    <line
       x1="23.973347"
       y1="119.11285"
       x2="24.464342"
       y2="117.81786"
       id="line14"
       style="fill:none;fill-opacity:1;stroke:#ffa100;stroke-width:0.8;stroke-dasharray:none;stroke-opacity:1" />
    <path
       d="m 23.973347,119.11285 a 0.5,0.5 0 0 0 0.11397,0.53082"
       id="path15"
       style="fill:none;fill-opacity:1;stroke:#ffa100;stroke-width:0.8;stroke-dasharray:none;stroke-opacity:1" />
    <line
       x1="24.302588"
       y1="119.85893"
       x2="24.087317"
       y2="119.64367"
       id="line15"
       style="fill:none;fill-opacity:1;stroke:#ffa100;stroke-width:0.8;stroke-dasharray:none;stroke-opacity:1" />
    <path
       d="m 24.302587,119.85894 a 0.5,0.5 0 0 0 0.707106,0"
       id="path16"
       style="fill:none;fill-opacity:1;stroke:#ffa100;stroke-width:0.8;stroke-dasharray:none;stroke-opacity:1" />
    <line
       x1="26.63604"
       y1="118.23259"
       x2="25.009693"
       y2="119.85893"
       id="line16"
       style="fill:none;fill-opacity:1;stroke:#ffa100;stroke-width:0.8;stroke-dasharray:none;stroke-opacity:1" />
    <path
       d="m 26.918882,118.23259 a 0.2,0.2 0 0 0 -0.282843,0"
       id="path17"
       style="fill:none;fill-opacity:1;stroke:#ffa100;stroke-width:0.8;stroke-dasharray:none;stroke-opacity:1" />
    <line
       x1="27.76741"
       y1="119.08112"
       x2="26.918882"
       y2="118.23259"
       id="line17"
       style="fill:none;fill-opacity:1;stroke:#ffa100;stroke-width:0.8;stroke-dasharray:none;stroke-opacity:1" />
    <path
       d="m 27.76741,119.36396 a 0.2,0.2 0 0 0 0,-0.28284"
       id="path18"
       style="fill:none;fill-opacity:1;stroke:#ffa100;stroke-width:0.8;stroke-dasharray:none;stroke-opacity:1" />
    <line
       x1="26.141064"
       y1="120.9903"
       x2="27.76741"
       y2="119.36396"
       id="line18"
       style="fill:none;fill-opacity:1;stroke:#ffa100;stroke-width:0.8;stroke-dasharray:none;stroke-opacity:1" />
    <path
       d="m 26.141064,120.99031 a 0.5,0.5 0 0 0 0,0.7071"
       id="path19"
       style="fill:none;fill-opacity:1;stroke:#ffa100;stroke-width:0.8;stroke-dasharray:none;stroke-opacity:1" />
    <line
       x1="26.467215"
       y1="122.02357"
       x2="26.141064"
       y2="121.69741"
       id="line19"
       style="fill:none;fill-opacity:1;stroke:#ffa100;stroke-width:0.8;stroke-dasharray:none;stroke-opacity:1" />
    <path
       d="m 26.467215,122.02356 a 0.5,0.5 0 0 0 0.581128,0.0917"
       id="path20"
       style="fill:none;fill-opacity:1;stroke:#ffa100;stroke-width:0.8;stroke-dasharray:none;stroke-opacity:1" />
    <line
       x1="28.182148"
       y1="121.53566"
       x2="27.048344"
       y2="122.11522"
       id="line20"
       style="fill:none;fill-opacity:1;stroke:#ffa100;stroke-width:0.8;stroke-dasharray:none;stroke-opacity:1" />
    <path
       d="m 33.21399,119.99673 a 10,10 0 0 0 -5.031842,1.53893"
       id="path21"
       style="fill:none;fill-opacity:1;stroke:#ffa100;stroke-width:0.8;stroke-dasharray:none;stroke-opacity:1" />
    <path
       d="m 33.21399,119.99673 a 7,7 0 0 0 6.738837,-6.18544"
       id="path22"
       style="fill:none;fill-opacity:1;stroke:#ffa100;stroke-width:0.8;stroke-dasharray:none;stroke-opacity:1" />
    <path
       d="m 43.065453,107.65675 a 10,10 0 0 0 -3.112626,6.15454"
       id="path23"
       style="fill:none;fill-opacity:1;stroke:#ffa100;stroke-width:0.8;stroke-dasharray:none;stroke-opacity:1" />
    <line
       x1="59.119122"
       y1="92.686462"
       x2="43.065453"
       y2="107.65675"
       id="line23"
       style="fill:none;fill-opacity:1;stroke:#ffa100;stroke-width:0.8;stroke-dasharray:none;stroke-opacity:1" />
    <path
       d="m 65.939105,90 a 10,10 0 0 0 -6.819984,2.686463"
       id="path24"
       style="fill:none;fill-opacity:1;stroke:#ffa100;stroke-width:0.8;stroke-dasharray:none;stroke-opacity:1" />
    <line
       x1="65.939102"
       y1="90"
       x2="80.060898"
       y2="90"
       id="line24"
       style="fill:none;fill-opacity:1;stroke:#ffa100;stroke-width:0.8;stroke-dasharray:none;stroke-opacity:1" />
    <path
       d="M 86.880879,92.686463 A 10,10 0 0 0 80.060895,90"
       id="path25"
       style="fill:none;fill-opacity:1;stroke:#ffa100;stroke-width:0.8;stroke-dasharray:none;stroke-opacity:1" />
    <line
       x1="102.93455"
       y1="107.65675"
       x2="86.880882"
       y2="92.686462"
       id="line25"
       style="fill:none;fill-opacity:1;stroke:#ffa100;stroke-width:0.8;stroke-dasharray:none;stroke-opacity:1" />
    <path
       d="m 106.04717,113.81129 a 10,10 0 0 0 -3.11262,-6.15454"
       id="path26"
       style="fill:none;fill-opacity:1;stroke:#ffa100;stroke-width:0.8;stroke-dasharray:none;stroke-opacity:1" />
    <path
       d="m 106.04717,113.81129 a 7,7 0 0 0 6.73884,6.18544"
       id="path27"
       style="fill:none;fill-opacity:1;stroke:#ffa100;stroke-width:0.8;stroke-dasharray:none;stroke-opacity:1" />
    <path
       d="m 117.81785,121.53566 a 10,10 0 0 0 -5.03184,-1.53893"
       id="path28"
       style="fill:none;fill-opacity:1;stroke:#ffa100;stroke-width:0.8;stroke-dasharray:none;stroke-opacity:1" />
    <line
       x1="119.11285"
       y1="122.02665"
       x2="117.81786"
       y2="121.53566"
       id="line28"
       style="fill:none;fill-opacity:1;stroke:#ffa100;stroke-width:0.8;stroke-dasharray:none;stroke-opacity:1" />
    <path
       d="m 119.11285,122.02665 a 0.5,0.5 0 0 0 0.53082,-0.11397"
       id="path29"
       style="fill:none;fill-opacity:1;stroke:#ffa100;stroke-width:0.8;stroke-dasharray:none;stroke-opacity:1" />
    <line
       x1="119.85893"
       y1="121.69741"
       x2="119.64367"
       y2="121.91268"
       id="line29"
       style="fill:none;fill-opacity:1;stroke:#ffa100;stroke-width:0.8;stroke-dasharray:none;stroke-opacity:1" />
    <path
       d="m 119.85894,121.69741 a 0.5,0.5 0 0 0 0,-0.7071"
       id="path30"
       style="fill:none;fill-opacity:1;stroke:#ffa100;stroke-width:0.8;stroke-dasharray:none;stroke-opacity:1" />
    <line
       x1="118.23259"
       y1="119.36396"
       x2="119.85893"
       y2="120.9903"
       id="line30"
       style="fill:none;fill-opacity:1;stroke:#ffa100;stroke-width:0.8;stroke-dasharray:none;stroke-opacity:1" />
    <path
       d="m 118.23259,119.08112 a 0.2,0.2 0 0 0 0,0.28284"
       id="path31"
       style="fill:none;fill-opacity:1;stroke:#ffa100;stroke-width:0.8;stroke-dasharray:none;stroke-opacity:1" />
    <line
       x1="119.08112"
       y1="118.23259"
       x2="118.23259"
       y2="119.08112"
       id="line31"
       style="fill:none;fill-opacity:1;stroke:#ffa100;stroke-width:0.8;stroke-dasharray:none;stroke-opacity:1" />
    <path
       d="m 119.36396,118.23259 a 0.2,0.2 0 0 0 -0.28284,0"
       id="path32"
       style="fill:none;fill-opacity:1;stroke:#ffa100;stroke-width:0.8;stroke-dasharray:none;stroke-opacity:1" />
    <line
       x1="120.9903"
       y1="119.85893"
       x2="119.36396"
       y2="118.23259"
       id="line32"
       style="fill:none;fill-opacity:1;stroke:#ffa100;stroke-width:0.8;stroke-dasharray:none;stroke-opacity:1" />
    <path
       d="m 120.99031,119.85894 a 0.5,0.5 0 0 0 0.7071,0"
       id="path33"
       style="fill:none;fill-opacity:1;stroke:#ffa100;stroke-width:0.8;stroke-dasharray:none;stroke-opacity:1" />
    <line
       x1="122.02357"
       y1="119.53278"
       x2="121.69741"
       y2="119.85893"
       id="line33"
       style="fill:none;fill-opacity:1;stroke:#ffa100;stroke-width:0.8;stroke-dasharray:none;stroke-opacity:1" />
    <path
       d="m 122.02356,119.53279 a 0.5,0.5 0 0 0 0.0917,-0.58113"
       id="path34"
       style="fill:none;fill-opacity:1;stroke:#ffa100;stroke-width:0.8;stroke-dasharray:none;stroke-opacity:1" />
    <line
       x1="121.53566"
       y1="117.81786"
       x2="122.11522"
       y2="118.95166"
       id="line34"
       style="fill:none;fill-opacity:1;stroke:#ffa100;stroke-width:0.8;stroke-dasharray:none;stroke-opacity:1" />
    <path
       d="m 119.99673,112.78601 a 10,10 0 0 0 1.53893,5.03184"
       id="path35"
       style="fill:none;fill-opacity:1;stroke:#ffa100;stroke-width:0.8;stroke-dasharray:none;stroke-opacity:1" />
    <path
       d="m 119.99673,112.78601 a 7,7 0 0 0 -6.18544,-6.73884"
       id="path36"
       style="fill:none;fill-opacity:1;stroke:#ffa100;stroke-width:0.8;stroke-dasharray:none;stroke-opacity:1" />
    <path
       d="m 107.65675,102.93455 a 10,10 0 0 0 6.15454,3.11262"
       id="path37"
       style="fill:none;fill-opacity:1;stroke:#ffa100;stroke-width:0.8;stroke-dasharray:none;stroke-opacity:1" />
    <line
       x1="92.686462"
       y1="86.880882"
       x2="107.65675"
       y2="102.93455"
       id="line37"
       style="fill:none;fill-opacity:1;stroke:#ffa100;stroke-width:0.8;stroke-dasharray:none;stroke-opacity:1" />
    <path
       d="m 90,80.060895 a 10,10 0 0 0 2.686463,6.819984"
       id="path38"
       style="fill:none;fill-opacity:1;stroke:#ffa100;stroke-width:0.8;stroke-dasharray:none;stroke-opacity:1" />
    <line
       x1="90"
       y1="80.060898"
       x2="90"
       y2="65.939102"
       id="line38"
       style="fill:none;fill-opacity:1;stroke:#ffa100;stroke-width:0.8;stroke-dasharray:none;stroke-opacity:1" />
    <path
       d="M 92.686463,59.119121 A 10,10 0 0 0 90,65.939105"
       id="path39"
       style="fill:none;fill-opacity:1;stroke:#ffa100;stroke-width:0.8;stroke-dasharray:none;stroke-opacity:1" />
    <line
       x1="107.65675"
       y1="43.065453"
       x2="92.686462"
       y2="59.119122"
       id="line39"
       style="fill:none;fill-opacity:1;stroke:#ffa100;stroke-width:0.8;stroke-dasharray:none;stroke-opacity:1" />
    <path
       d="m 113.81129,39.952827 a 10,10 0 0 0 -6.15454,3.112626"
       id="path40"
       style="fill:none;fill-opacity:1;stroke:#ffa100;stroke-width:0.8;stroke-dasharray:none;stroke-opacity:1" />
    <path
       d="m 113.81129,39.952827 a 7,7 0 0 0 6.18544,-6.738837"
       id="path41"
       style="fill:none;fill-opacity:1;stroke:#ffa100;stroke-width:0.8;stroke-dasharray:none;stroke-opacity:1" />
    <path
       d="m 121.53566,28.182148 a 10,10 0 0 0 -1.53893,5.031842"
       id="path42"
       style="fill:none;fill-opacity:1;stroke:#ffa100;stroke-width:0.8;stroke-dasharray:none;stroke-opacity:1" />
    <line
       x1="122.02665"
       y1="26.887148"
       x2="121.53566"
       y2="28.182148"
       id="line42"
       style="fill:none;fill-opacity:1;stroke:#ffa100;stroke-width:0.8;stroke-dasharray:none;stroke-opacity:1" />
    <path
       d="m 122.02665,26.887147 a 0.5,0.5 0 0 0 -0.11397,-0.530814"
       id="path43"
       style="fill:none;fill-opacity:1;stroke:#ffa100;stroke-width:0.8;stroke-dasharray:none;stroke-opacity:1" />
    <line
       x1="121.69741"
       y1="26.141064"
       x2="121.91268"
       y2="26.356333"
       id="line43"
       style="fill:none;fill-opacity:1;stroke:#ffa100;stroke-width:0.8;stroke-dasharray:none;stroke-opacity:1" />
    <path
       d="m 121.69741,26.141064 a 0.5,0.5 0 0 0 -0.7071,0"
       id="path44"
       style="fill:none;fill-opacity:1;stroke:#ffa100;stroke-width:0.8;stroke-dasharray:none;stroke-opacity:1" />
    <line
       x1="119.36396"
       y1="27.76741"
       x2="120.9903"
       y2="26.141064"
       id="line44"
       style="fill:none;fill-opacity:1;stroke:#ffa100;stroke-width:0.8;stroke-dasharray:none;stroke-opacity:1" />
    <path
       d="m 119.08112,27.76741 a 0.2,0.2 0 0 0 0.28284,0"
       id="path45"
       style="fill:none;fill-opacity:1;stroke:#ffa100;stroke-width:0.8;stroke-dasharray:none;stroke-opacity:1" />
    <line
       x1="118.23259"
       y1="26.918882"
       x2="119.08112"
       y2="27.76741"
       id="line45"
       style="fill:none;fill-opacity:1;stroke:#ffa100;stroke-width:0.8;stroke-dasharray:none;stroke-opacity:1" />
    <path
       d="m 118.23259,26.636039 a 0.2,0.2 0 0 0 0,0.282843"
       id="path46"
       style="fill:none;fill-opacity:1;stroke:#ffa100;stroke-width:0.8;stroke-dasharray:none;stroke-opacity:1" />
    <line
       x1="119.85893"
       y1="25.009693"
       x2="118.23259"
       y2="26.63604"
       id="line46"
       style="fill:none;fill-opacity:1;stroke:#ffa100;stroke-width:0.8;stroke-dasharray:none;stroke-opacity:1" />
    <path
       d="m 119.85894,25.009693 a 0.5,0.5 0 0 0 0,-0.707106"
       id="path47"
       style="fill:none;fill-opacity:1;stroke:#ffa100;stroke-width:0.8;stroke-dasharray:none;stroke-opacity:1" />
    <line
       x1="119.53278"
       y1="23.976437"
       x2="119.85893"
       y2="24.302588"
       id="line47"
       style="fill:none;fill-opacity:1;stroke:#ffa100;stroke-width:0.8;stroke-dasharray:none;stroke-opacity:1" />
    <path
       d="m 119.53279,23.976436 a 0.5,0.5 0 0 0 -0.58113,-0.09165"
       id="path48"
       style="fill:none;fill-opacity:1;stroke:#ffa100;stroke-width:0.8;stroke-dasharray:none;stroke-opacity:1" />
    <line
       x1="117.81786"
       y1="24.464342"
       x2="118.95166"
       y2="23.884781"
       id="line48"
       style="fill:none;fill-opacity:1;stroke:#ffa100;stroke-width:0.8;stroke-dasharray:none;stroke-opacity:1" />
    <path
       d="m 112.78601,26.003272 a 10,10 0 0 0 5.03184,-1.53893"
       id="path49"
       style="fill:none;fill-opacity:1;stroke:#ffa100;stroke-width:0.8;stroke-dasharray:none;stroke-opacity:1" />
    <path
       d="m 112.78601,26.003272 a 7,7 0 0 0 -6.73884,6.185433"
       id="path50"
       style="fill:none;fill-opacity:1;stroke:#ffa100;stroke-width:0.8;stroke-dasharray:none;stroke-opacity:1" />
    <path
       d="m 102.93455,38.343249 a 10,10 0 0 0 3.11262,-6.154544"
       id="path51"
       style="fill:none;fill-opacity:1;stroke:#ffa100;stroke-width:0.8;stroke-dasharray:none;stroke-opacity:1" />
    <line
       x1="86.880882"
       y1="53.313538"
       x2="102.93455"
       y2="38.34325"
       id="line51"
       style="fill:none;fill-opacity:1;stroke:#ffa100;stroke-width:0.8;stroke-dasharray:none;stroke-opacity:1" />
    <path
       d="m 80.060895,56 a 10,10 0 0 0 6.819984,-2.686463"
       id="path52"
       style="fill:none;fill-opacity:1;stroke:#ffa100;stroke-width:0.8;stroke-dasharray:none;stroke-opacity:1" />
    <line
       x1="80.060898"
       y1="56"
       x2="65.939102"
       y2="56"
       id="line52"
       style="fill:none;fill-opacity:1;stroke:#ffa100;stroke-width:0.8;stroke-dasharray:none;stroke-opacity:1" />
    <path
       d="M 59.119121,53.313537 A 10,10 0 0 0 65.939105,56"
       id="path53"
       style="fill:none;fill-opacity:1;stroke:#ffa100;stroke-width:0.8;stroke-dasharray:none;stroke-opacity:1" />
    <line
       x1="43.065453"
       y1="38.34325"
       x2="59.119122"
       y2="53.313538"
       id="line53"
       style="fill:none;fill-opacity:1;stroke:#ffa100;stroke-width:0.8;stroke-dasharray:none;stroke-opacity:1" />
    <path
       d="m 39.952827,32.188705 a 10,10 0 0 0 3.112626,6.154544"
       id="path54"
       style="fill:none;fill-opacity:1;stroke:#ffa100;stroke-width:0.8;stroke-dasharray:none;stroke-opacity:1" />
    <path
       d="M 39.952827,32.188705 A 7,7 0 0 0 33.21399,26.003272"
       id="path55"
       style="fill:none;fill-opacity:1;stroke:#ffa100;stroke-width:0.8;stroke-dasharray:none;stroke-opacity:1" />
    <path
       d="m 28.182148,24.464342 a 10,10 0 0 0 5.031842,1.53893"
       id="path56"
       style="fill:none;fill-opacity:1;stroke:#ffa100;stroke-width:0.8;stroke-dasharray:none;stroke-opacity:1" />
    <circle
       cx="113"
       cy="33"
       r="4.25"
       id="circle56"
       style="fill:none;fill-opacity:1;stroke:#ffa100;stroke-width:0.8;stroke-dasharray:none;stroke-opacity:1" />
    <line
       x1="103.7369"
       y1="41.41457"
       x2="104.58543"
       y2="42.2631"
       id="line56"
       style="fill:none;fill-opacity:1;stroke:#ffa100;stroke-width:0.8;stroke-dasharray:none;stroke-opacity:1" />
    <path
       d="m 103.7369,41.131728 a 0.2,0.2 0 0 0 0,0.282843"
       id="path57"
       style="fill:none;fill-opacity:1;stroke:#ffa100;stroke-width:0.8;stroke-dasharray:none;stroke-opacity:1" />
    <line
       x1="103.7369"
       y1="41.131729"
       x2="106.63604"
       y2="38.23259"
       id="line57"
       style="fill:none;fill-opacity:1;stroke:#ffa100;stroke-width:0.8;stroke-dasharray:none;stroke-opacity:1" />
    <path
       d="m 106.91888,38.23259 a 0.2,0.2 0 0 0 -0.28284,0"
       id="path58"
       style="fill:none;fill-opacity:1;stroke:#ffa100;stroke-width:0.8;stroke-dasharray:none;stroke-opacity:1" />
    <line
       x1="106.91888"
       y1="38.23259"
       x2="107.76741"
       y2="39.08112"
       id="line58"
       style="fill:none;fill-opacity:1;stroke:#ffa100;stroke-width:0.8;stroke-dasharray:none;stroke-opacity:1" />
    <path
       d="m 107.76741,39.363961 a 0.2,0.2 0 0 0 0,-0.282843"
       id="path59"
       style="fill:none;fill-opacity:1;stroke:#ffa100;stroke-width:0.8;stroke-dasharray:none;stroke-opacity:1" />
    <line
       x1="107.76741"
       y1="39.36396"
       x2="104.86827"
       y2="42.2631"
       id="line59"
       style="fill:none;fill-opacity:1;stroke:#ffa100;stroke-width:0.8;stroke-dasharray:none;stroke-opacity:1" />
    <path
       d="m 104.58543,42.263099 a 0.2,0.2 0 0 0 0.28284,0"
       id="path60"
       style="fill:none;fill-opacity:1;stroke:#ffa100;stroke-width:0.8;stroke-dasharray:none;stroke-opacity:1" />
    <circle
       cx="113"
       cy="113"
       r="4.25"
       id="circle60"
       style="fill:none;fill-opacity:1;stroke:#ffa100;stroke-width:0.8;stroke-dasharray:none;stroke-opacity:1" />
    <line
       x1="104.58543"
       y1="103.7369"
       x2="103.7369"
       y2="104.58543"
       id="line60"
       style="fill:none;fill-opacity:1;stroke:#ffa100;stroke-width:0.8;stroke-dasharray:none;stroke-opacity:1" />
    <path
       d="m 104.86827,103.7369 a 0.2,0.2 0 0 0 -0.28284,0"
       id="path61"
       style="fill:none;fill-opacity:1;stroke:#ffa100;stroke-width:0.8;stroke-dasharray:none;stroke-opacity:1" />
    <line
       x1="104.86827"
       y1="103.7369"
       x2="107.76741"
       y2="106.63604"
       id="line61"
       style="fill:none;fill-opacity:1;stroke:#ffa100;stroke-width:0.8;stroke-dasharray:none;stroke-opacity:1" />
    <path
       d="m 107.76741,106.91888 a 0.2,0.2 0 0 0 0,-0.28284"
       id="path62"
       style="fill:none;fill-opacity:1;stroke:#ffa100;stroke-width:0.8;stroke-dasharray:none;stroke-opacity:1" />
    <line
       x1="107.76741"
       y1="106.91888"
       x2="106.91888"
       y2="107.76741"
       id="line62"
       style="fill:none;fill-opacity:1;stroke:#ffa100;stroke-width:0.8;stroke-dasharray:none;stroke-opacity:1" />
    <path
       d="m 106.63604,107.76741 a 0.2,0.2 0 0 0 0.28284,0"
       id="path63"
       style="fill:none;fill-opacity:1;stroke:#ffa100;stroke-width:0.8;stroke-dasharray:none;stroke-opacity:1" />
    <line
       x1="106.63604"
       y1="107.76741"
       x2="103.7369"
       y2="104.86827"
       id="line63"
       style="fill:none;fill-opacity:1;stroke:#ffa100;stroke-width:0.8;stroke-dasharray:none;stroke-opacity:1" />
    <path
       d="m 103.7369,104.58543 a 0.2,0.2 0 0 0 0,0.28284"
       id="path64"
       style="fill:none;fill-opacity:1;stroke:#ffa100;stroke-width:0.8;stroke-dasharray:none;stroke-opacity:1" />
    <circle
       cx="33"
       cy="113"
       r="4.25"
       id="circle64"
       style="fill:none;fill-opacity:1;stroke:#ffa100;stroke-width:0.8;stroke-dasharray:none;stroke-opacity:1" />
    <line
       x1="42.2631"
       y1="104.58543"
       x2="41.41457"
       y2="103.7369"
       id="line64"
       style="fill:none;fill-opacity:1;stroke:#ffa100;stroke-width:0.8;stroke-dasharray:none;stroke-opacity:1" />
    <path
       d="m 42.263099,104.86827 a 0.2,0.2 0 0 0 0,-0.28284"
       id="path65"
       style="fill:none;fill-opacity:1;stroke:#ffa100;stroke-width:0.8;stroke-dasharray:none;stroke-opacity:1" />
    <line
       x1="42.2631"
       y1="104.86827"
       x2="39.36396"
       y2="107.76741"
       id="line65"
       style="fill:none;fill-opacity:1;stroke:#ffa100;stroke-width:0.8;stroke-dasharray:none;stroke-opacity:1" />
    <path
       d="m 39.081118,107.76741 a 0.2,0.2 0 0 0 0.282843,0"
       id="path66"
       style="fill:none;fill-opacity:1;stroke:#ffa100;stroke-width:0.8;stroke-dasharray:none;stroke-opacity:1" />
    <line
       x1="39.08112"
       y1="107.76741"
       x2="38.23259"
       y2="106.91888"
       id="line66"
       style="fill:none;fill-opacity:1;stroke:#ffa100;stroke-width:0.8;stroke-dasharray:none;stroke-opacity:1" />
    <path
       d="m 38.23259,106.63604 a 0.2,0.2 0 0 0 0,0.28284"
       id="path67"
       style="fill:none;fill-opacity:1;stroke:#ffa100;stroke-width:0.8;stroke-dasharray:none;stroke-opacity:1" />
    <line
       x1="38.23259"
       y1="106.63604"
       x2="41.131729"
       y2="103.7369"
       id="line67"
       style="fill:none;fill-opacity:1;stroke:#ffa100;stroke-width:0.8;stroke-dasharray:none;stroke-opacity:1" />
    <path
       d="m 41.414571,103.7369 a 0.2,0.2 0 0 0 -0.282843,0"
       id="path68"
       style="fill:none;fill-opacity:1;stroke:#ffa100;stroke-width:0.8;stroke-dasharray:none;stroke-opacity:1" />
    <circle
       cx="33"
       cy="33"
       r="4.25"
       id="circle68"
       style="fill:none;fill-opacity:1;stroke:#ffa100;stroke-width:0.8;stroke-dasharray:none;stroke-opacity:1" />
    <line
       x1="41.41457"
       y1="42.2631"
       x2="42.2631"
       y2="41.41457"
       id="line68"
       style="fill:none;fill-opacity:1;stroke:#ffa100;stroke-width:0.8;stroke-dasharray:none;stroke-opacity:1" />
    <path
       d="m 41.131728,42.263099 a 0.2,0.2 0 0 0 0.282843,0"
       id="path69"
       style="fill:none;fill-opacity:1;stroke:#ffa100;stroke-width:0.8;stroke-dasharray:none;stroke-opacity:1" />
    <line
       x1="41.131729"
       y1="42.2631"
       x2="38.23259"
       y2="39.36396"
       id="line69"
       style="fill:none;fill-opacity:1;stroke:#ffa100;stroke-width:0.8;stroke-dasharray:none;stroke-opacity:1" />
    <path
       d="m 38.23259,39.081118 a 0.2,0.2 0 0 0 0,0.282843"
       id="path70"
       style="fill:none;fill-opacity:1;stroke:#ffa100;stroke-width:0.8;stroke-dasharray:none;stroke-opacity:1" />
    <line
       x1="38.23259"
       y1="39.08112"
       x2="39.08112"
       y2="38.23259"
       id="line70"
       style="fill:none;fill-opacity:1;stroke:#ffa100;stroke-width:0.8;stroke-dasharray:none;stroke-opacity:1" />
    <path
       d="m 39.363961,38.23259 a 0.2,0.2 0 0 0 -0.282843,0"
       id="path71"
       style="fill:none;fill-opacity:1;stroke:#ffa100;stroke-width:0.8;stroke-dasharray:none;stroke-opacity:1" />
    <line
       x1="39.36396"
       y1="38.23259"
       x2="42.2631"
       y2="41.131729"
       id="line71"
       style="fill:none;fill-opacity:1;stroke:#ffa100;stroke-width:0.8;stroke-dasharray:none;stroke-opacity:1" />
    <path
       d="m 42.263099,41.414571 a 0.2,0.2 0 0 0 0,-0.282843"
       id="path72"
       style="fill:none;fill-opacity:1;stroke:#ffa100;stroke-width:0.8;stroke-dasharray:none;stroke-opacity:1" />
    <line
       x1="53.313499"
       y1="59.119099"
       x2="38.343201"
       y2="43.065498"
       id="line72"
       style="fill:none;fill-opacity:1;stroke:#ffa100;stroke-width:0.8;stroke-dasharray:none;stroke-opacity:1" />
    <circle
       cx="113"
       cy="113"
       r="33"
       id="circle72"
       style="fill:none;fill-opacity:1;stroke:#ffa100;stroke-width:0.8;stroke-dasharray:none;stroke-opacity:1" />
    <circle
       cx="113"
       cy="33"
       r="33"
       id="circle73"
       style="fill:none;fill-opacity:1;stroke:#ffa100;stroke-width:0.8;stroke-dasharray:none;stroke-opacity:1" />
    <circle
       cx="33"
       cy="33"
       r="33"
       id="circle74"
       style="fill:none;fill-opacity:1;stroke:#ffa100;stroke-width:0.8;stroke-dasharray:none;stroke-opacity:1" />
    <circle
       cx="33"
       cy="113"
       r="33"
       id="circle75"
       style="fill:none;fill-opacity:1;stroke:#ffa100;stroke-width:0.8;stroke-dasharray:none;stroke-opacity:1" />
  </g>
</svg>
